HIERARCHY
ROOT K0
{
	OFFSET 0.000000 0.000000 0.000000
	CHANNELS 6 Xposition Yposition Zposition Zrotation Yrotation Xrotation 
	JOINT K1
	{
		OFFSET 10.000000 0.000000 0.000000
		CHANNELS 3 Zrotation Yrotation Xrotation
		JOINT K2
		{
			OFFSET 10.000000 10.000000 0.000000
			CHANNELS 3 Zrotation Yrotation Xrotation
			JOINT K3
			{
				OFFSET 0.000000 10.000000 0.000000
				CHANNELS 3 Zrotation Yrotation Xrotation
				End Site
				{
					OFFSET 0.000000 0.000000 0.000000
				}
			}
		}
	}
}
MOTION
Frames: 60
Frame Time: 0.041667
0.000000 1.000000 0.000000 0.000000 8.000000 5.000000 4.000000 6.000000 0.000000 4.000000 0.000000 0.000000 4.000000 10.000000 0.000000 
0.000000 1.000000 0.000000 -0.451441 8.077189 4.933256 5.373062 6.095562 -0.204390 5.609026 -0.000079 -0.102264 4.000000 10.000000 0.000000 
0.000000 1.000000 0.000000 -0.903947 8.149676 4.866401 6.714607 6.192490 -0.404133 7.193711 0.002677 -0.203720 4.000000 10.000000 0.000000 
0.000000 1.000000 0.000000 -1.361057 8.217128 4.799964 8.028262 6.290670 -0.600784 8.759696 0.008178 -0.304875 4.000000 10.000000 0.000000 
0.000000 1.000000 0.000000 -1.825567 8.280020 4.733389 9.317376 6.390177 -0.793958 10.311502 0.016374 -0.405894 4.000000 10.000000 0.000000 
0.000000 1.000000 0.000000 -2.299246 8.337716 4.667601 10.583786 6.491175 -0.985633 11.853671 0.027242 -0.506536 4.000000 10.000000 0.000000 
0.000000 1.000000 0.000000 -2.783841 8.391557 4.601241 11.830308 6.593609 -1.173815 13.389164 0.040761 -0.606799 4.000000 10.000000 0.000000 
0.000000 1.000000 0.000000 -3.280527 8.441217 4.535465 13.058664 6.697546 -1.360160 14.920809 0.056932 -0.706857 4.000000 10.000000 0.000000 
0.000000 1.000000 0.000000 -3.790156 8.486403 4.468981 14.270772 6.802891 -1.543694 16.450583 0.075758 -0.806689 4.000000 10.000000 0.000000 
0.000000 1.000000 0.000000 -4.313028 8.527698 4.404023 15.467532 6.910358 -1.726124 17.980597 0.097259 -0.906524 4.000000 10.000000 0.000000 
0.000000 1.000000 0.000000 -4.849219 8.564233 4.338458 16.650149 7.019155 -1.906089 19.512487 0.121458 -1.006138 4.000000 10.000000 0.000000 
0.000000 1.000000 0.000000 -5.398708 8.596529 4.273163 17.819722 7.129303 -2.084039 21.047157 0.148370 -1.105683 4.000000 10.000000 0.000000 
0.000000 1.000000 0.000000 -5.960528 8.624412 4.208371 18.975976 7.241054 -2.260058 22.586530 0.178037 -1.205110 4.000000 10.000000 0.000000 
0.000000 1.000000 0.000000 -6.534463 8.647248 4.143736 20.120172 7.354035 -2.434292 24.130657 0.210474 -1.303914 4.000000 10.000000 0.000000 
0.000000 1.000000 0.000000 -7.119749 8.665701 4.079347 21.252762 7.468315 -2.605947 25.680062 0.245700 -1.402639 4.000000 10.000000 0.000000 
0.000000 1.000000 0.000000 -7.715706 8.679383 4.015682 22.374428 7.583854 -2.775596 27.234632 0.283716 -1.500979 4.000000 10.000000 0.000000 
0.000000 1.000000 0.000000 -8.321033 8.688304 3.952597 23.485094 7.700702 -2.942537 28.794837 0.324559 -1.599284 4.000000 10.000000 0.000000 
0.000000 1.000000 0.000000 -8.934283 8.691964 3.889792 24.584644 7.818550 -3.106945 30.360980 0.368243 -1.696451 4.000000 10.000000 0.000000 
0.000000 1.000000 0.000000 -9.554537 8.690655 3.828175 25.673715 7.937169 -3.269031 31.932298 0.414722 -1.793058 4.000000 10.000000 0.000000 
0.000000 1.000000 0.000000 -10.180584 8.684435 3.767537 26.752620 8.057026 -3.428180 33.508174 0.464008 -1.888886 4.000000 10.000000 0.000000 
0.000000 1.000000 0.000000 -10.810417 8.673269 3.707947 27.820728 8.177820 -3.584339 35.088823 0.516079 -1.983549 4.000000 10.000000 0.000000 
0.000000 1.000000 0.000000 -11.443312 8.657206 3.649585 28.879124 8.299450 -3.737340 36.672601 0.570888 -2.077080 4.000000 10.000000 0.000000 
0.000000 1.000000 0.000000 -12.076866 8.636357 3.592237 29.926843 8.421895 -3.886522 38.259702 0.628392 -2.169472 4.000000 10.000000 0.000000 
0.000000 1.000000 0.000000 -12.710534 8.610789 3.536385 30.965226 8.545044 -4.032395 39.847919 0.688513 -2.260124 4.000000 10.000000 0.000000 
0.000000 1.000000 0.000000 -13.342123 8.580533 3.482170 31.993643 8.668772 -4.174742 41.436858 0.751187 -2.348999 4.000000 10.000000 0.000000 
0.000000 1.000000 0.000000 -13.969810 8.545911 3.429384 33.011967 8.793151 -4.312970 43.025546 0.816299 -2.436059 4.000000 10.000000 0.000000 
0.000000 1.000000 0.000000 -14.592179 8.507120 3.378643 34.020511 8.918263 -4.447409 44.612385 0.883756 -2.521148 4.000000 10.000000 0.000000 
0.000000 1.000000 0.000000 -15.207522 8.464325 3.329049 35.019419 9.043810 -4.577098 46.195933 0.953404 -2.604034 4.000000 10.000000 0.000000 
0.000000 1.000000 0.000000 -15.814124 8.417725 3.281181 36.008656 9.169951 -4.702470 47.774716 1.025149 -2.684391 4.000000 10.000000 0.000000 
0.000000 1.000000 0.000000 -16.410668 8.367759 3.235572 36.988613 9.296622 -4.823854 49.346738 1.098787 -2.762046 4.000000 10.000000 0.000000 
0.000000 1.000000 0.000000 -16.995581 8.314652 3.191809 37.959432 9.423714 -4.940743 50.910179 1.174134 -2.836897 4.000000 10.000000 0.000000 
0.000000 1.000000 0.000000 -17.567383 8.258648 3.149472 38.921287 9.551263 -5.052748 52.463041 1.251017 -2.908698 4.000000 10.000000 0.000000 
0.000000 1.000000 0.000000 -18.124761 8.200234 3.109072 39.874325 9.679345 -5.160252 54.003142 1.329217 -2.977304 4.000000 10.000000 0.000000 
0.000000 1.000000 0.000000 -18.665719 8.139693 3.070682 40.818050 9.807949 -5.263129 55.528864 1.408506 -3.042826 4.000000 10.000000 0.000000 
0.000000 1.000000 0.000000 -19.189550 8.077436 3.033352 41.753074 9.936969 -5.360886 57.037365 1.488612 -3.104741 4.000000 10.000000 0.000000 
0.000000 1.000000 0.000000 -19.695361 8.013811 2.997483 42.679550 10.066396 -5.453892 58.525962 1.569293 -3.162994 4.000000 10.000000 0.000000 
0.000000 1.000000 0.000000 -20.181372 7.949125 2.962986 43.596732 10.196185 -5.542219 59.992775 1.650275 -3.217392 4.000000 10.000000 0.000000 
0.000000 1.000000 0.000000 -20.647548 7.883795 2.929531 44.505127 10.326342 -5.625633 61.434372 1.731269 -3.268006 4.000000 10.000000 0.000000 
0.000000 1.000000 0.000000 -21.092633 7.818175 2.897650 45.403925 10.456703 -5.704789 62.848464 1.811973 -3.314616 4.000000 10.000000 0.000000 
0.000000 1.000000 0.000000 -21.516417 7.752654 2.866589 46.292891 10.587226 -5.779273 64.231888 1.892057 -3.357177 4.000000 10.000000 0.000000 
0.000000 1.000000 0.000000 -21.918083 7.687562 2.836052 47.170983 10.717758 -5.848951 65.582021 1.971222 -3.395819 4.000000 10.000000 0.000000 
0.000000 1.000000 0.000000 -22.297529 7.623200 2.806489 48.037321 10.848135 -5.914452 66.895762 2.049162 -3.430387 4.000000 10.000000 0.000000 
0.000000 1.000000 0.000000 -22.654980 7.559839 2.777435 48.890855 10.977987 -5.975755 68.169811 2.125536 -3.460763 4.000000 10.000000 0.000000 
0.000000 1.000000 0.000000 -22.989906 7.497866 2.748936 49.729571 11.107065 -6.032882 69.401572 2.199977 -3.487297 4.000000 10.000000 0.000000 
0.000000 1.000000 0.000000 -23.303250 7.437434 2.720896 50.551975 11.235082 -6.086037 70.587418 2.272243 -3.509972 4.000000 10.000000 0.000000 
0.000000 1.000000 0.000000 -23.594943 7.378798 2.693003 51.355505 11.361363 -6.135228 71.724565 2.341954 -3.528878 4.000000 10.000000 0.000000 
0.000000 1.000000 0.000000 -23.866041 7.322149 2.665373 52.137717 11.485584 -6.180538 72.809551 2.408892 -3.544382 4.000000 10.000000 0.000000 
0.000000 1.000000 0.000000 -24.116835 7.267720 2.638067 52.895332 11.607035 -6.222107 73.839518 2.472717 -3.556734 4.000000 10.000000 0.000000 
0.000000 1.000000 0.000000 -24.348009 7.215715 2.610910 53.624806 11.725058 -6.260070 74.811439 2.533167 -3.566006 4.000000 10.000000 0.000000 
0.000000 1.000000 0.000000 -24.559863 7.166310 2.584260 54.322079 11.838773 -6.294663 75.722550 2.589951 -3.572540 4.000000 10.000000 0.000000 
0.000000 1.000000 0.000000 -24.753542 7.119633 2.558126 54.983097 11.947445 -6.325927 76.569609 2.642884 -3.576650 4.000000 10.000000 0.000000 
0.000000 1.000000 0.000000 -24.929368 7.075916 2.532852 55.603200 12.050077 -6.353906 77.349894 2.691704 -3.578846 4.000000 10.000000 0.000000 
0.000000 1.000000 0.000000 -25.087501 7.035401 2.508639 56.177434 12.145803 -6.378815 78.060749 2.736216 -3.579306 4.000000 10.000000 0.000000 
0.000000 1.000000 0.000000 -25.228680 6.998327 2.485883 56.701037 12.233570 -6.400725 78.699102 2.776202 -3.578477 4.000000 10.000000 0.000000 
0.000000 1.000000 0.000000 -25.352738 6.964947 2.465179 57.168906 12.312361 -6.419757 79.262288 2.811478 -3.576815 4.000000 10.000000 0.000000 
0.000000 1.000000 0.000000 -25.459459 6.935629 2.446533 57.576048 12.381259 -6.435746 79.747527 2.841850 -3.574691 4.000000 10.000000 0.000000 
0.000000 1.000000 0.000000 -25.548554 6.910706 2.430507 57.917724 12.439353 -6.448869 80.151859 2.867150 -3.572384 4.000000 10.000000 0.000000 
0.000000 1.000000 0.000000 -25.619592 6.890532 2.417475 58.189559 12.485658 -6.459072 80.472174 2.887180 -3.570267 4.000000 10.000000 0.000000 
0.000000 1.000000 0.000000 -25.671672 6.875560 2.407804 58.387501 12.519493 -6.466441 80.705340 2.901755 -3.568494 4.000000 10.000000 0.000000 
0.000000 1.000000 0.000000 -25.714819 6.863049 2.399896 58.548860 12.547132 -6.472417 80.896340 2.913688 -3.566974 4.000000 10.000000 0.000000 
